# Blender 4.3.0
# www.blender.org
mtllib Griddle.mtl
o Cube
v -1.000000 0.000000 -1.000000
v -1.000000 2.000000 -1.000000
v 1.000000 0.000000 -1.000000
v 1.000000 2.000000 -1.000000
v -1.000000 0.000000 0.800000
v -1.000000 2.000000 0.800000
v 1.000000 0.000000 0.800000
v 1.000000 2.000000 0.800000
v -1.000000 1.800000 -1.000000
v 1.000000 1.800000 -1.000000
v 1.000000 1.800000 0.800000
v -1.000000 1.800000 0.800000
v 1.000000 2.000000 1.000000
v -1.000000 2.000000 1.000000
v 1.000000 1.800000 1.000000
v -1.000000 1.800000 1.000000
v 1.000000 0.000000 -0.820000
v 1.000000 2.000000 -0.820000
v -1.000000 0.000000 -0.820000
v -1.000000 2.000000 -0.820000
v -1.000000 1.800000 -0.820000
v 1.000000 1.800000 -0.820000
v -1.000000 2.400000 -1.000000
v 1.000000 2.400000 -1.000000
v -1.000000 2.400000 -0.820000
v 1.000000 2.400000 -0.820000
vn -0.0000 -0.0000 -1.0000
vn 1.0000 -0.0000 -0.0000
vn -0.0000 -1.0000 -0.0000
vn -1.0000 -0.0000 -0.0000
vn -0.0000 -0.0000 1.0000
vn -0.0000 1.0000 -0.0000
vt 0.600000 0.000000
vt 0.625000 0.000000
vt 0.625000 0.250000
vt 0.600000 0.250000
vt 0.600000 0.275000
vt 0.625000 0.275000
vt 0.625000 0.500000
vt 0.600000 0.500000
vt 0.600000 0.750000
vt 0.600000 0.975000
vt 0.625000 0.975000
vt 0.625000 1.000000
vt 0.600000 1.000000
vt 0.150000 0.500000
vt 0.375000 0.500000
vt 0.375000 0.750000
vt 0.150000 0.750000
vt 0.375000 0.975000
vt 0.375000 1.000000
vt 0.375000 0.275000
vt 0.375000 0.000000
vt 0.375000 0.250000
vt 0.625000 0.750000
vt 0.850000 0.500000
vt 0.850000 0.750000
vt 0.125000 0.500000
vt 0.125000 0.750000
vt 0.875000 0.500000
vt 0.875000 0.750000
s 0
usemtl Base
f 9/1/1 2/2/1 4/3/1 10/4/1
f 22/5/2 18/6/2 8/7/2 11/8/2
f 12/9/3 11/8/3 15/8/3 16/9/3
f 21/10/4 20/11/4 2/12/4 9/13/4
f 17/14/3 7/15/3 5/16/3 19/17/3
f 4/3/1 2/2/1 23/2/1 24/3/1
f 19/18/4 21/10/4 9/13/4 1/19/4
f 7/15/5 11/8/5 12/9/5 5/16/5
f 17/20/2 22/5/2 11/8/2 7/15/2
f 1/21/1 9/1/1 10/4/1 3/22/1
f 15/8/5 13/7/5 14/23/5 16/9/5
f 6/23/4 12/9/4 16/9/4 14/23/4
f 11/8/2 8/7/2 13/7/2 15/8/2
f 8/7/6 6/23/6 14/23/6 13/7/6
f 3/22/2 10/4/2 22/5/2 17/20/2
f 5/16/4 12/9/4 21/10/4 19/18/4
f 3/26/3 17/14/3 19/17/3 1/27/3
f 12/9/4 6/23/4 20/11/4 21/10/4
f 10/4/2 4/3/2 18/6/2 22/5/2
f 26/24/6 24/28/6 23/29/6 25/25/6
f 2/12/4 20/11/4 25/11/4 23/12/4
f 18/6/2 4/3/2 24/3/2 26/6/2
f 20/25/5 18/24/5 26/24/5 25/25/5
usemtl Plate
f 8/7/6 18/24/6 20/25/6 6/23/6
