# Blender 4.3.0
# www.blender.org
mtllib TrashCan.mtl
o Cube
v 0.597352 0.000000 0.684541
v 0.610492 1.880016 0.840878
v -0.597351 0.000000 0.684541
v -0.610492 1.880016 0.840878
v 0.597351 0.000000 -0.684541
v 0.610492 1.880016 -0.840878
v -0.597352 0.000000 -0.684541
v -0.610492 1.880016 -0.840878
v 0.558439 1.993694 0.769181
v -0.558439 1.993694 0.769181
v -0.558439 1.993694 -0.769181
v 0.558439 1.993694 -0.769181
v 0.659965 1.875409 0.909020
v -0.659965 1.875409 0.909020
v -0.659965 1.875409 -0.909020
v 0.659965 1.875409 -0.909020
v 0.659965 1.998300 0.909020
v -0.659965 1.998300 0.909020
v -0.659965 1.998300 -0.909020
v 0.659965 1.998300 -0.909020
v 0.487600 0.011581 0.671608
v -0.487600 0.011581 0.671608
v -0.487600 0.011581 -0.671608
v 0.487600 0.011581 -0.671608
vn -0.0000 -0.0829 0.9966
vn -1.0000 -0.0070 -0.0000
vn -0.0000 -0.0829 -0.9966
vn 1.0000 -0.0070 -0.0000
vn -0.0000 -1.0000 -0.0000
vn -0.0927 -0.9957 -0.0000
vn -0.9994 0.0357 -0.0000
vn -0.0000 -0.9977 -0.0674
vn 0.0453 0.9990 -0.0000
vn -0.0453 0.9990 -0.0000
vn -0.0000 -0.0000 1.0000
vn 1.0000 -0.0000 -0.0000
vn -1.0000 -0.0000 -0.0000
vn -0.0000 -0.0000 -1.0000
vn 0.0927 -0.9957 -0.0000
vn -0.0000 0.9995 0.0329
vn -0.0000 0.9995 -0.0329
vn -0.0000 -0.9977 0.0674
vn -0.0000 1.0000 -0.0000
vn 0.9994 0.0357 -0.0000
vn -0.0000 0.0492 0.9988
vn -0.0000 0.0492 -0.9988
vt 0.375000 0.000000
vt 0.625000 0.000000
vt 0.625000 0.250000
vt 0.375000 0.250000
vt 0.625000 0.500000
vt 0.375000 0.500000
vt 0.625000 0.750000
vt 0.375000 0.750000
vt 0.625000 1.000000
vt 0.375000 1.000000
vt 0.125000 0.500000
vt 0.125000 0.750000
vt 0.875000 0.750000
vt 0.875000 0.500000
s 0
f 1/1/1 2/2/1 4/3/1 3/4/1
f 3/4/2 4/3/2 8/5/2 7/6/2
f 7/6/3 8/5/3 6/7/3 5/8/3
f 5/8/4 6/7/4 2/9/4 1/10/4
f 3/11/5 7/6/5 5/8/5 1/12/5
f 2/9/6 6/7/6 16/7/6 13/9/6
f 9/13/7 12/7/7 24/7/7 21/13/7
f 4/3/8 2/2/8 13/2/8 14/3/8
f 10/14/9 11/5/9 19/5/9 18/14/9
f 12/7/10 9/13/10 17/13/10 20/7/10
f 14/3/11 13/2/11 17/2/11 18/3/11
f 13/9/12 16/7/12 20/7/12 17/9/12
f 15/5/13 14/3/13 18/3/13 19/5/13
f 16/7/14 15/5/14 19/5/14 20/7/14
f 8/5/15 4/3/15 14/3/15 15/5/15
f 11/5/16 12/7/16 20/7/16 19/5/16
f 9/13/17 10/14/17 18/14/17 17/13/17
f 6/7/18 8/5/18 15/5/18 16/7/18
f 23/5/19 22/14/19 21/13/19 24/7/19
f 11/5/20 10/14/20 22/14/20 23/5/20
f 12/7/21 11/5/21 23/5/21 24/7/21
f 10/14/22 9/13/22 21/13/22 22/14/22
