# Blender 4.3.0
# www.blender.org
mtllib Patty.mtl
o Cylinder
v 0.000000 -0.015495 -0.900696
v -0.000000 0.072265 -0.992972
v -0.000000 0.315495 -0.900696
v -0.000000 0.227735 -0.992972
v 0.529416 -0.015495 -0.728678
v 0.583655 0.072265 -0.803331
v 0.529416 0.315495 -0.728678
v 0.583655 0.227735 -0.803331
v 0.856613 -0.015495 -0.278330
v 0.944373 0.072265 -0.306845
v 0.856613 0.315495 -0.278330
v 0.944373 0.227735 -0.306845
v 0.856613 -0.015495 0.278330
v 0.944373 0.072265 0.306845
v 0.856613 0.315495 0.278330
v 0.944373 0.227735 0.306845
v 0.529416 -0.015495 0.728678
v 0.583655 0.072265 0.803331
v 0.529416 0.315495 0.728678
v 0.583655 0.227735 0.803331
v -0.000000 -0.015495 0.900696
v -0.000000 0.072265 0.992972
v 0.000000 0.315495 0.900696
v -0.000000 0.227735 0.992972
v -0.529416 -0.015495 0.728678
v -0.583655 0.072265 0.803331
v -0.529416 0.315495 0.728678
v -0.583655 0.227735 0.803331
v -0.856613 -0.015495 0.278330
v -0.944373 0.072265 0.306845
v -0.856613 0.315495 0.278330
v -0.944373 0.227735 0.306845
v -0.856613 -0.015495 -0.278330
v -0.944373 0.072265 -0.306845
v -0.856613 0.315495 -0.278330
v -0.944373 0.227735 -0.306845
v -0.529416 -0.015495 -0.728678
v -0.583655 0.072265 -0.803331
v -0.529416 0.315495 -0.728678
v -0.583655 0.227735 -0.803331
vn -0.3090 -0.0000 -0.9511
vn 1.0000 -0.0000 -0.0000
vn 0.8090 -0.0000 0.5878
vn 0.3090 -0.0000 0.9511
vn -0.3090 -0.0000 0.9511
vn -0.8090 -0.0000 0.5878
vn -1.0000 -0.0000 -0.0000
vn -0.8090 -0.0000 -0.5878
vn 0.8090 -0.0000 -0.5878
vn -0.0000 1.0000 -0.0000
vn 0.3090 -0.0000 -0.9511
vn 0.2185 -0.7071 -0.6725
vn 0.2185 0.7071 -0.6725
vn 0.5721 -0.7071 -0.4156
vn 0.5721 0.7071 -0.4156
vn 0.7071 -0.7071 -0.0000
vn 0.7071 0.7071 -0.0000
vn 0.5721 -0.7071 0.4156
vn 0.5721 0.7071 0.4156
vn 0.2185 -0.7071 0.6725
vn 0.2185 0.7071 0.6725
vn -0.2185 -0.7071 0.6725
vn -0.2185 0.7071 0.6725
vn -0.5721 -0.7071 0.4156
vn -0.5721 0.7071 0.4156
vn -0.7071 -0.7071 -0.0000
vn -0.7071 0.7071 -0.0000
vn -0.5721 -0.7071 -0.4156
vn -0.5721 0.7071 -0.4156
vn -0.2185 -0.7071 -0.6725
vn -0.2185 0.7071 -0.6725
vn -0.0000 -1.0000 -0.0000
vt 0.100000 0.632572
vt 0.100000 0.867428
vt -0.000000 0.867428
vt -0.000000 0.632572
vt 0.800000 0.632572
vt 0.800000 0.867428
vt 0.700000 0.867428
vt 0.700000 0.632572
vt 0.700000 0.632572
vt 0.700000 0.867428
vt 0.600000 0.867428
vt 0.600000 0.632572
vt 0.600000 0.632572
vt 0.600000 0.867428
vt 0.500000 0.867428
vt 0.500000 0.632572
vt 0.500000 0.632572
vt 0.500000 0.867428
vt 0.400000 0.867428
vt 0.400000 0.632572
vt 0.400000 0.632572
vt 0.400000 0.867428
vt 0.300000 0.867428
vt 0.300000 0.632572
vt 0.300000 0.632572
vt 0.300000 0.867428
vt 0.200000 0.867428
vt 0.200000 0.632572
vt 0.200000 0.632572
vt 0.200000 0.867428
vt 0.100000 0.867428
vt 0.100000 0.632572
vt 0.900000 0.632572
vt 0.900000 0.867428
vt 0.800000 0.867428
vt 0.800000 0.632572
vt 0.377959 0.426120
vt 0.250000 0.467697
vt 0.122041 0.426120
vt 0.042958 0.317272
vt 0.042958 0.182728
vt 0.122041 0.073879
vt 0.250000 0.032303
vt 0.377959 0.073879
vt 0.457042 0.182728
vt 0.457042 0.317272
vt 1.000000 0.632572
vt 1.000000 0.867428
vt 0.900000 0.867428
vt 0.900000 0.632572
vt 0.750000 0.490000
vt 0.891068 0.444164
vt 0.877959 0.426120
vt 0.750000 0.467697
vt 0.391068 0.444164
vt 0.250000 0.490000
vt 0.978254 0.324164
vt 0.957042 0.317272
vt 0.478254 0.324164
vt 0.978254 0.175836
vt 0.957042 0.182728
vt 0.478254 0.175836
vt 0.891068 0.055836
vt 0.877959 0.073879
vt 0.391068 0.055836
vt 0.750000 0.010000
vt 0.750000 0.032303
vt 0.250000 0.010000
vt 0.608932 0.055836
vt 0.622041 0.073879
vt 0.108932 0.055836
vt 0.521746 0.175836
vt 0.542958 0.182728
vt 0.021746 0.175836
vt 0.521746 0.324164
vt 0.542958 0.317272
vt 0.021746 0.324164
vt 0.608932 0.444164
vt 0.622041 0.426121
vt 0.108932 0.444164
s 0
f 38/1/1 40/2/1 4/3/1 2/4/1
f 10/5/2 12/6/2 16/7/2 14/8/2
f 14/9/3 16/10/3 20/11/3 18/12/3
f 18/13/4 20/14/4 24/15/4 22/16/4
f 22/17/5 24/18/5 28/19/5 26/20/5
f 26/21/6 28/22/6 32/23/6 30/24/6
f 30/25/7 32/26/7 36/27/7 34/28/7
f 34/29/8 36/30/8 40/31/8 38/32/8
f 6/33/9 8/34/9 12/35/9 10/36/9
f 7/37/10 3/38/10 39/39/10 35/40/10 31/41/10 27/42/10 23/43/10 19/44/10 15/45/10 11/46/10
f 2/47/11 4/48/11 8/49/11 6/50/11
f 2/51/12 6/52/12 5/53/12 1/54/12
f 8/55/13 4/56/13 3/38/13 7/37/13
f 6/52/14 10/57/14 9/58/14 5/53/14
f 12/59/15 8/55/15 7/37/15 11/46/15
f 10/57/16 14/60/16 13/61/16 9/58/16
f 16/62/17 12/59/17 11/46/17 15/45/17
f 14/60/18 18/63/18 17/64/18 13/61/18
f 20/65/19 16/62/19 15/45/19 19/44/19
f 18/63/20 22/66/20 21/67/20 17/64/20
f 24/68/21 20/65/21 19/44/21 23/43/21
f 22/66/22 26/69/22 25/70/22 21/67/22
f 28/71/23 24/68/23 23/43/23 27/42/23
f 26/69/24 30/72/24 29/73/24 25/70/24
f 32/74/25 28/71/25 27/42/25 31/41/25
f 30/72/26 34/75/26 33/76/26 29/73/26
f 36/77/27 32/74/27 31/41/27 35/40/27
f 34/75/28 38/78/28 37/79/28 33/76/28
f 40/80/29 36/77/29 35/40/29 39/39/29
f 38/78/30 2/51/30 1/54/30 37/79/30
f 4/56/31 40/80/31 39/39/31 3/38/31
f 1/54/32 5/53/32 9/58/32 13/61/32 17/64/32 21/67/32 25/70/32 29/73/32 33/76/32 37/79/32
