# Blender 4.3.1
# www.blender.org
mtllib BunUpper.mtl
o Icosphere
v 0.000000 0.400541 -0.000000
v 0.723607 0.179428 -0.525725
v -0.276388 0.179428 -0.850649
v -0.894426 0.179427 -0.000000
v -0.276388 0.179429 0.850649
v 0.723607 0.179428 0.525725
v -0.162456 0.340802 -0.499995
v 0.425323 0.340802 -0.309011
v 0.262869 0.210836 -0.809012
v 0.850648 0.210835 -0.000000
v 0.425323 0.340802 0.309011
v -0.525730 0.340801 -0.000000
v -0.688189 0.210835 -0.499997
v -0.162456 0.340802 0.499995
v -0.688189 0.210835 0.499997
v 0.262869 0.210836 0.809012
v 0.951058 0.000541 -0.309013
v 0.951058 0.000541 0.309013
v 0.000000 0.000540 -1.000000
v 0.587786 0.000540 -0.809017
v -0.951058 0.000541 -0.309013
v -0.587786 0.000540 -0.809017
v -0.587786 0.000541 0.809017
v -0.951058 0.000541 0.309013
v 0.587786 0.000541 0.809017
v 0.000000 0.000541 1.000000
vn 0.0430 0.9903 -0.1323
vn 0.3855 0.9108 -0.1476
vn -0.1125 0.9903 -0.0818
vn -0.1125 0.9903 0.0818
vn 0.0430 0.9903 0.1323
vn 0.7216 0.6585 -0.2137
vn 0.0197 0.6586 -0.7523
vn -0.7094 0.6585 -0.2512
vn -0.4581 0.6586 0.5970
vn 0.4262 0.6586 0.6202
vn 0.7713 0.3018 -0.5604
vn -0.2946 0.3018 -0.9067
vn -0.9534 0.3018 -0.0000
vn -0.2946 0.3018 0.9067
vn 0.7713 0.3018 0.5604
vn -0.0000 -1.0000 -0.0000
vn 0.2789 0.4309 0.8582
vn 0.0197 0.6586 0.7523
vn -0.7301 0.4309 0.5304
vn -0.7094 0.6585 0.2512
vn -0.7301 0.4309 -0.5304
vn -0.4581 0.6586 -0.5970
vn 0.2789 0.4309 -0.8582
vn 0.4262 0.6586 -0.6202
vn 0.9024 0.4309 -0.0000
vn 0.7216 0.6585 0.2137
vn 0.2595 0.9108 0.3211
vn 0.0903 0.9563 0.2779
vn -0.0212 0.9108 0.4123
vn -0.2252 0.9108 0.3460
vn -0.2364 0.9563 0.1718
vn -0.3987 0.9108 0.1072
vn -0.3987 0.9108 -0.1072
vn -0.2364 0.9563 -0.1718
vn -0.2252 0.9108 -0.3460
vn 0.3855 0.9108 0.1476
vn 0.2922 0.9563 -0.0000
vn 0.1391 0.9903 -0.0000
vn -0.0212 0.9108 -0.4123
vn 0.0903 0.9563 -0.2779
vn 0.2595 0.9108 -0.3211
vt 0.181819 0.000000
vt 0.227273 0.078731
vt 0.136365 0.078731
vt 0.272728 0.157461
vt 0.318182 0.078731
vt 0.363637 0.157461
vt 0.909091 0.000000
vt 0.954545 0.078731
vt 0.863636 0.078731
vt 0.727273 0.000000
vt 0.772727 0.078731
vt 0.681818 0.078731
vt 0.545455 0.000000
vt 0.590909 0.078731
vt 0.500000 0.078731
vt 0.318182 0.236191
vt 0.090910 0.157461
vt 0.181819 0.157461
vt 0.136365 0.236191
vt 0.818182 0.157461
vt 0.909091 0.157461
vt 0.863636 0.236191
vt 0.636364 0.157461
vt 0.727273 0.157461
vt 0.681818 0.236191
vt 0.454546 0.157461
vt 0.545455 0.157461
vt 0.500000 0.236191
vt 0.227273 0.236191
vt 0.045455 0.236191
vt 0.772727 0.236191
vt 0.590909 0.236191
vt 0.409092 0.236191
vt 0.954545 0.236191
vt 1.000000 0.157461
vt 0.409092 0.078731
vt 0.363637 0.000000
s 0
f 1/1/1 8/2/1 7/3/1
f 2/4/2 8/5/2 10/6/2
f 1/7/3 7/8/3 12/9/3
f 1/10/4 12/11/4 14/12/4
f 1/13/5 14/14/5 11/15/5
f 2/4/6 10/6/6 17/16/6
f 3/17/7 9/18/7 19/19/7
f 4/20/8 13/21/8 21/22/8
f 5/23/9 15/24/9 23/25/9
f 6/26/10 16/27/10 25/28/10
f 2/4/11 17/16/11 20/29/11
f 3/17/12 19/19/12 22/30/12
f 4/20/13 21/22/13 24/31/13
f 5/23/14 23/25/14 26/32/14
f 6/26/15 25/28/15 18/33/15
f 18/33/16 25/28/16 26/32/16 23/25/16 24/31/16 21/22/16 22/30/16 19/19/16 20/29/16 17/16/16
f 25/28/17 16/27/17 26/32/17
f 16/27/18 5/23/18 26/32/18
f 23/25/19 15/24/19 24/31/19
f 15/24/20 4/20/20 24/31/20
f 21/22/21 13/21/21 22/34/21
f 13/21/22 3/35/22 22/34/22
f 19/19/23 9/18/23 20/29/23
f 9/18/24 2/4/24 20/29/24
f 17/16/25 10/6/25 18/33/25
f 10/6/26 6/26/26 18/33/26
f 11/15/27 16/27/27 6/26/27
f 11/15/28 14/14/28 16/27/28
f 14/14/29 5/23/29 16/27/29
f 14/12/30 15/24/30 5/23/30
f 14/12/31 12/11/31 15/24/31
f 12/11/32 4/20/32 15/24/32
f 12/9/33 13/21/33 4/20/33
f 12/9/34 7/8/34 13/21/34
f 7/8/35 3/35/35 13/21/35
f 10/6/36 11/36/36 6/26/36
f 10/6/37 8/5/37 11/36/37
f 8/5/38 1/37/38 11/36/38
f 7/3/39 9/18/39 3/17/39
f 7/3/40 8/2/40 9/18/40
f 8/2/41 2/4/41 9/18/41
