# Blender 4.3.1
# www.blender.org
mtllib Toaster.mtl
o Cube
v 1.000000 2.000000 -1.000000
v 1.000000 0.000000 -1.000000
v 1.000000 2.000000 3.000000
v 1.000000 0.000000 3.000000
v -1.000000 2.000000 -1.000000
v -1.000000 0.000000 -1.000000
v -1.000000 2.000000 3.000000
v -1.000000 0.000000 3.000000
v -1.000000 0.000000 0.000000
v -1.000000 0.000000 1.000000
v -1.000000 0.000000 2.000000
v 0.900000 2.000000 0.000000
v 1.000000 2.000000 1.000000
v 0.900000 2.000000 2.000000
v -0.900000 2.000000 2.000000
v -1.000000 2.000000 1.000000
v -0.900000 2.000000 0.000000
v 1.000000 0.000000 2.000000
v 1.000000 0.000000 1.000000
v 1.000000 0.000000 0.000000
v 0.900000 2.500000 0.000000
v 1.000000 2.600000 1.000000
v 0.900000 2.500000 2.000000
v -0.900000 2.500000 2.000000
v -1.000000 2.600000 1.000000
v -0.900000 2.500000 0.000000
v -1.000000 2.000000 0.000000
v 1.000000 2.000000 0.000000
v -1.000000 2.600000 0.000000
v 1.000000 2.600000 0.000000
v -1.000000 2.000000 2.000000
v -1.000000 2.600000 2.000000
v 1.000000 2.000000 2.000000
v 1.000000 2.600000 2.000000
vn -0.0000 1.0000 -0.0000
vn -0.0000 -0.0000 1.0000
vn -1.0000 -0.0000 -0.0000
vn -0.0000 -1.0000 -0.0000
vn 1.0000 -0.0000 -0.0000
vn -0.0000 -0.0000 -1.0000
vt 0.625000 0.687500
vt 0.875000 0.687500
vt 0.875000 0.750000
vt 0.625000 0.750000
vt 0.375000 0.750000
vt 0.625000 1.000000
vt 0.375000 1.000000
vt 0.375000 0.187500
vt 0.625000 0.187500
vt 0.625000 0.250000
vt 0.375000 0.250000
vt 0.125000 0.687500
vt 0.375000 0.687500
vt 0.125000 0.750000
vt 0.625000 0.500000
vt 0.375000 0.500000
vt 0.625000 0.562500
vt 0.375000 0.562500
vt 0.625000 0.625000
vt 0.375000 0.625000
vt 0.125000 0.500000
vt 0.125000 0.562500
vt 0.125000 0.625000
vt 0.375000 0.000000
vt 0.625000 0.000000
vt 0.625000 0.062500
vt 0.375000 0.062500
vt 0.625000 0.125000
vt 0.375000 0.125000
vt 0.875000 0.500000
vt 0.875000 0.562500
vt 0.875000 0.625000
vt 0.862500 0.687500
vt 0.637500 0.687500
vt 0.862500 0.687500
vt 0.637500 0.562500
vt 0.862500 0.562500
vt 0.637500 0.562500
s 0
usemtl Material
f 33/1/1 31/2/1 7/3/1 3/4/1
f 4/5/2 3/4/2 7/6/2 8/7/2
f 9/8/3 27/9/3 5/10/3 6/11/3
f 11/12/4 18/13/4 4/5/4 8/14/4
f 18/13/5 33/1/5 3/4/5 4/5/5
f 6/11/6 5/10/6 1/15/6 2/16/6
f 2/16/5 1/15/5 28/17/5 20/18/5
f 20/18/5 28/17/5 13/19/5 19/20/5
f 19/20/5 13/19/5 33/1/5 18/13/5
f 6/21/4 2/16/4 20/18/4 9/22/4
f 9/22/4 20/18/4 19/20/4 10/23/4
f 10/23/4 19/20/4 18/13/4 11/12/4
f 8/24/3 7/25/3 31/26/3 11/27/3
f 11/27/3 31/26/3 16/28/3 10/29/3
f 10/29/3 16/28/3 27/9/3 9/8/3
f 1/15/1 5/30/1 27/31/1 28/17/1
f 33/1/5 13/19/5 22/19/5 34/1/5
f 16/28/3 31/26/3 32/26/3 25/28/3
f 30/17/1 29/31/1 25/32/1 22/19/1
f 22/19/1 25/32/1 32/2/1 34/1/1
f 27/9/3 16/28/3 25/28/3 29/9/3
f 13/19/5 28/17/5 30/17/5 22/19/5
f 17/37/1 12/36/1 28/17/1 27/31/1
f 21/38/6 26/37/6 29/31/6 30/17/6
f 26/37/6 17/37/6 27/31/6 29/31/6
f 12/36/6 21/38/6 30/17/6 28/17/6
f 15/33/2 24/35/2 32/2/2 31/2/2
f 14/34/1 15/33/1 31/2/1 33/1/1
f 24/35/2 23/34/2 34/1/2 32/2/2
f 23/34/2 14/34/2 33/1/2 34/1/2
usemtl Black
f 15/33/2 14/34/2 23/34/2 24/35/2
f 12/36/6 17/37/6 26/37/6 21/38/6
